<?xml version="1.0" encoding="UTF-8" standalone="no"?>
<!-- Created with Inkscape (http://www.inkscape.org/) -->

<svg
   width="11.305998mm"
   height="8mm"
   viewBox="0 0 11.305998 8.0000001"
   version="1.1"
   id="svg5"
   inkscape:version="1.2.2 (732a01da63, 2022-12-09)"
   sodipodi:docname="tackle-logo.svg"
   inkscape:export-filename="tackle-logo.png"
   inkscape:export-xdpi="2000"
   inkscape:export-ydpi="2000"
   xmlns:inkscape="http://www.inkscape.org/namespaces/inkscape"
   xmlns:sodipodi="http://sodipodi.sourceforge.net/DTD/sodipodi-0.dtd"
   xmlns="http://www.w3.org/2000/svg"
   xmlns:svg="http://www.w3.org/2000/svg">
  <sodipodi:namedview
     id="namedview7"
     pagecolor="#ffffff"
     bordercolor="#000000"
     borderopacity="0.25"
     inkscape:showpageshadow="2"
     inkscape:pageopacity="0.0"
     inkscape:pagecheckerboard="0"
     inkscape:deskcolor="#d1d1d1"
     inkscape:document-units="mm"
     showgrid="false"
     inkscape:zoom="1.5700758"
     inkscape:cx="-24.839565"
     inkscape:cy="-88.530758"
     inkscape:window-width="1920"
     inkscape:window-height="1009"
     inkscape:window-x="1912"
     inkscape:window-y="-8"
     inkscape:window-maximized="1"
     inkscape:current-layer="layer1">
    <inkscape:grid
       type="xygrid"
       id="grid129"
       originx="-6.0161667"
       originy="-49.249991"
       units="mm"
       spacingx="0.99999999"
       spacingy="0.99999999" />
  </sodipodi:namedview>
  <defs
     id="defs2" />
  <g
     inkscape:label="Layer 1"
     inkscape:groupmode="layer"
     id="layer1"
     transform="translate(-6.0161673,-49.249988)">
    <path
       id="path235"
       style="color:#000000;fill:#000000;stroke-width:1;stroke-linecap:square;stroke-miterlimit:10;-inkscape-stroke:none"
       d="m 7.0374224,49.707108 -0.442473,0.685561 H 11.166383 L 7.2585408,56.450037 7.0371861,56.792818 H 7.7229838 L 7.9443385,56.450037 11.85218,50.392669 h 4.57141 l 0.442497,-0.685561 h -4.571434 -0.685797 z"
       sodipodi:nodetypes="ccccccccccccc" />
    <path
       style="color:#000000;fill:#000000;stroke-width:1;stroke-linecap:square;stroke-miterlimit:10;-inkscape-stroke:none"
       d="m 7.0373784,52.907175 -0.4424055,0.685721 1.8211744,-1.6e-4 0.4424055,-0.685721 z"
       id="path447"
       sodipodi:nodetypes="ccccc" />
    <path
       style="color:#000000;fill:#000000;stroke-width:1;stroke-linecap:square;stroke-miterlimit:10;-inkscape-stroke:none"
       d="m 6.8161757,49.249988 c -0.4377712,0 -0.8000084,0.362238 -0.8000084,0.800009 0,0.437771 0.3622372,0.800008 0.8000084,0.800008 0.4377711,0 0.8000083,-0.362237 0.8000083,-0.800008 0,-0.437771 -0.3622372,-0.800009 -0.8000083,-0.800009 z"
       id="path1215"
       sodipodi:nodetypes="sssss" />
    <path
       style="color:#000000;fill:#000000;stroke-width:1;stroke-linecap:square;stroke-miterlimit:10;-inkscape-stroke:none"
       d="m 6.8161757,52.450027 c -0.437771,0 -0.8000084,0.362237 -0.8000084,0.800008 0,0.437771 0.3622374,0.800009 0.8000084,0.800009 0.4377709,0 0.8000083,-0.362238 0.8000083,-0.800009 0,-0.437771 -0.3622374,-0.800008 -0.8000083,-0.800008 z"
       id="path1221"
       sodipodi:nodetypes="sssss" />
    <path
       style="color:#000000;fill:#000000;stroke-width:1;stroke-linecap:square;stroke-miterlimit:10;-inkscape-stroke:none"
       d="m 16.522143,52.44998 c -0.437772,0 -0.800008,0.362237 -0.800008,0.800008 0,0.437771 0.362236,0.800009 0.800008,0.800009 0.437771,0 0.800008,-0.362238 0.800008,-0.800009 0,-0.437771 -0.362237,-0.800008 -0.800008,-0.800008 z"
       id="path1308"
       sodipodi:nodetypes="sssss" />
    <path
       style="color:#000000;fill:#000000;stroke-width:1;stroke-linecap:square;stroke-miterlimit:10;-inkscape-stroke:none"
       d="m 16.522157,55.649972 c -0.437771,0 -0.800009,0.362237 -0.800009,0.800008 0,0.437771 0.362238,0.800008 0.800009,0.800008 0.437771,0 0.800008,-0.362237 0.800008,-0.800008 0,-0.437771 -0.362237,-0.800009 -0.800008,-0.800008 z"
       id="path1310"
       sodipodi:nodetypes="sssss" />
    <path
       style="color:#000000;fill:#000000;stroke-width:1;stroke-linecap:square;stroke-miterlimit:10;-inkscape-stroke:none"
       d="m 10.915769,52.907015 -0.442406,0.685721 h 6.04878 l 0.442405,-0.685721 z"
       id="path4295"
       sodipodi:nodetypes="ccccc" />
    <path
       style="color:#000000;fill:#000000;stroke-width:1;stroke-linecap:square;stroke-miterlimit:10;-inkscape-stroke:none"
       d="m 8.8548975,56.107256 -0.4424055,0.685722 8.109665,-1.6e-4 0.442405,-0.685722 z"
       id="path4303"
       sodipodi:nodetypes="ccccc" />
  </g>
</svg>
