<?xml version="1.0" encoding="UTF-8" standalone="no"?>
<!-- Created with Inkscape (http://www.inkscape.org/) -->

<svg
   width="49.483913mm"
   height="17.499922mm"
   viewBox="0 0 49.483913 17.499922"
   version="1.1"
   id="svg5"
   inkscape:version="1.2.2 (732a01da63, 2022-12-09)"
   sodipodi:docname="tackle-logo-name.svg"
   inkscape:export-filename="tackle-logo-name.png"
   inkscape:export-xdpi="2000"
   inkscape:export-ydpi="2000"
   xmlns:inkscape="http://www.inkscape.org/namespaces/inkscape"
   xmlns:sodipodi="http://sodipodi.sourceforge.net/DTD/sodipodi-0.dtd"
   xmlns="http://www.w3.org/2000/svg"
   xmlns:svg="http://www.w3.org/2000/svg">
  <sodipodi:namedview
     id="namedview7"
     pagecolor="#ffffff"
     bordercolor="#000000"
     borderopacity="0.25"
     inkscape:showpageshadow="2"
     inkscape:pageopacity="0.0"
     inkscape:pagecheckerboard="0"
     inkscape:deskcolor="#d1d1d1"
     inkscape:document-units="mm"
     showgrid="false"
     inkscape:zoom="3.1401515"
     inkscape:cx="94.581424"
     inkscape:cy="64.328106"
     inkscape:window-width="1920"
     inkscape:window-height="1009"
     inkscape:window-x="1912"
     inkscape:window-y="-8"
     inkscape:window-maximized="1"
     inkscape:current-layer="layer1">
    <inkscape:grid
       type="xygrid"
       id="grid129"
       originx="-6.016167"
       originy="-49.249989"
       units="mm"
       spacingx="0.99999999"
       spacingy="0.99999999" />
  </sodipodi:namedview>
  <defs
     id="defs2" />
  <g
     inkscape:label="Layer 1"
     inkscape:groupmode="layer"
     id="layer1"
     transform="translate(-6.0161674,-49.249988)">
    <path
       id="path235"
       style="color:#000000;fill:#000000;stroke-linecap:square;stroke-miterlimit:10;-inkscape-stroke:none"
       d="M 8.2501396 50.249927 L 7.28224 51.749577 L 17.282146 51.749577 L 8.733831 64.999931 L 8.2496228 65.749756 L 9.7497896 65.749756 L 10.233998 64.999931 L 18.782313 51.749577 L 28.78222 51.749577 L 29.750119 50.249927 L 19.750213 50.249927 L 18.250046 50.249927 L 8.2501396 50.249927 z M 31.250286 50.249927 L 21.249863 65.749756 L 31.999594 65.749756 L 32.749936 65.749756 L 33.717836 64.249589 L 32.967494 64.249589 L 23.717929 64.249589 L 31.782553 51.749577 L 41.032118 51.749577 L 41.78246 51.749577 L 42.750359 50.249927 L 42.000017 50.249927 L 31.250286 50.249927 z M 44.250009 50.249927 L 43.765801 50.999752 L 34.249586 65.749756 L 52.516171 65.749756 L 53.265997 65.749756 L 54.233896 64.249589 L 53.484071 64.249589 L 36.717653 64.249589 L 45.265968 50.999752 L 45.750176 50.249927 L 44.250009 50.249927 z M 40.378411 52.944853 L 39.489576 53.414075 L 33.958131 56.33276 L 35.463466 53.999569 L 35.947157 53.249744 L 34.44699 53.249744 L 33.963299 53.999569 L 31.866269 57.250016 L 29.467966 57.250016 L 28.500583 58.749667 L 30.898886 58.749667 L 28.801857 61.999597 L 28.318165 62.749939 L 29.818332 62.749939 L 30.302024 61.999597 L 31.807358 59.666923 L 33.572625 62.585608 L 33.856329 63.054313 L 35.549248 61.882809 L 35.266062 61.413587 L 33.201071 57.999842 L 39.671477 54.58558 L 40.559795 54.116874 L 40.378411 52.944853 z M 21.314458 53.249744 L 18.894968 56.999903 L 18.733737 57.250016 L 16.467726 57.250016 L 15.500343 58.749667 L 17.765838 58.749667 L 15.669325 61.999597 L 15.185634 62.749939 L 16.6858 62.749939 L 17.169492 61.999597 L 19.266005 58.749667 L 22.765533 58.749667 L 20.66902 61.999597 L 20.185328 62.749939 L 21.685495 62.749939 L 22.169187 61.999597 L 24.265699 58.749667 L 25.233599 57.250016 L 25.39483 56.999903 L 27.81432 53.249744 L 21.314458 53.249744 z M 47.314422 53.249744 L 44.733701 57.250016 L 42.335398 57.250016 L 41.368015 58.749667 L 43.766318 58.749667 L 41.185597 62.749939 L 46.935634 62.749939 L 47.685459 62.749939 L 48.653358 61.249772 L 47.903533 61.249772 L 43.653663 61.249772 L 45.266485 58.749667 L 53.266513 58.749667 L 54.233896 57.250016 L 46.233868 57.250016 L 47.846689 54.749911 L 52.096559 54.749911 L 52.846384 54.749911 L 53.814283 53.249744 L 53.064458 53.249744 L 47.314422 53.249744 z M 21.846726 54.749911 L 25.346254 54.749911 L 23.894663 56.999903 L 23.733432 57.250016 L 20.233904 57.250016 L 20.395135 56.999903 L 21.846726 54.749911 z " />
    <path
       style="color:#000000;fill:#000000;stroke-linecap:square;stroke-miterlimit:10;-inkscape-stroke:none"
       d="m 8.2500434,57.25 -0.967752,1.5 3.9837776,-3.5e-4 0.967752,-1.5 z"
       id="path447"
       sodipodi:nodetypes="ccccc" />
    <path
       style="color:#000000;fill:#000000;stroke-linecap:square;stroke-miterlimit:10;-inkscape-stroke:none"
       d="m 7.7661674,49.249988 c -0.9576145,0 -1.75,0.792386 -1.75,1.75 0,0.957614 0.7923855,1.75 1.75,1.75 0.9576145,0 1.75,-0.792386 1.75,-1.75 0,-0.957614 -0.7923855,-1.75 -1.75,-1.75 z"
       id="path1215"
       sodipodi:nodetypes="sssss" />
    <path
       style="color:#000000;fill:#000000;stroke-linecap:square;stroke-miterlimit:10;-inkscape-stroke:none"
       d="m 53.75005,56.25 c -0.957614,0 -1.75,0.792386 -1.75,1.75 0,0.957614 0.792386,1.75 1.75,1.75 0.957614,0 1.75,-0.792386 1.75,-1.75 0,-0.957614 -0.792386,-1.75 -1.75,-1.75 z"
       id="path1221"
       sodipodi:nodetypes="sssss" />
    <path
       style="color:#000000;fill:#000000;stroke-linecap:square;stroke-miterlimit:10;-inkscape-stroke:none"
       d="m 7.7661674,56.25 c -0.9576145,0 -1.75,0.792386 -1.75,1.75 0,0.957614 0.7923855,1.75 1.75,1.75 0.9576145,0 1.75,-0.792386 1.75,-1.75 0,-0.957614 -0.7923855,-1.75 -1.75,-1.75 z"
       id="path1308"
       sodipodi:nodetypes="sssss" />
    <path
       style="color:#000000;fill:#000000;stroke-linecap:square;stroke-miterlimit:10;-inkscape-stroke:none"
       d="m 53.75008,63.249909 c -0.957614,0 -1.75,0.792385 -1.75,1.75 0,0.957614 0.792386,1.75 1.75,1.75 0.957614,0 1.75,-0.792386 1.75,-1.75 0,-0.957615 -0.792386,-1.750001 -1.75,-1.75 z"
       id="path1310"
       sodipodi:nodetypes="sssss" />
  </g>
</svg>
